:version 1.10
:name ASF
:units
  mass 1
  length 1
  angle deg
:documentation
  ASF file generated by Kaydara
:root
  axis xyz
  order  tx ty tz rx ry rz
  position 0 0 0
  orientation 0 0 0
:bonedata
  begin
    id 1
    name RightUpLegDummy
    direction -0.718183 -0.695806 0.00816078
    length 4.904
    axis 0 0 0 xyz
  end
  begin
    id 2
    name RightUpLeg
    direction -0.0736652 -0.994202 0.0783343
    length 17.4976
    axis -2.72909 -3.00389 -4.00133 xyz
    dof rx ry rz
  end
  begin
    id 3
    name RightLeg
    direction -0.0389037 -0.994596 -0.0962598
    length 16.5821
    axis 3.95836 -18.5909 -4.46993 xyz
    dof rx ry rz
  end
  begin
    id 4
    name RightFoot
    direction -0.311643 -0.412678 0.855906
    length 3.77069
    axis -1.99483 -18.8351 -3.27644 xyz
    dof rx ry rz
  end
  begin
    id 5
    name RightToes
    direction -0.317852 0.0389852 0.947339
    length 3.85082
    axis -2.00228 -18.1713 -3.25211 xyz
    dof rx ry rz
  end
  begin
    id 6
    name SpineDummy
    direction 8.3039e-015 1 4.44677e-016
    length 4.6813
    axis 0 0 0 xyz
  end
  begin
    id 7
    name Spine
    direction -0.000262373 0.999988 0.00493267
    length 10.1015
    axis -0.00246081 0.00062579 0.0150362 xyz
    dof rx ry rz
  end
  begin
    id 8
    name Spine1
    direction 0 0 0
    length 0
    axis -0.00349562 0.000650293 0.0196666 xyz
    dof rx ry rz
  end
  begin
    id 9
    name HEadDummy
    direction -0.000343232 0.999999 0.00123745
    length 3.43865
    axis -0.00349562 0.000650293 0.0196666 xyz
  end
  begin
    id 10
    name HEad
    direction -0.0461221 0.980933 0.188796
    length 5.12695
    axis -0.00351404 -7.04812 0.0199272 xyz
    dof rx ry rz
  end
  begin
    id 11
    name LeftShoulder1Dummy
    direction 0.998904 -0.0399089 -0.0244534
    length 3.5433
    axis -0.00349562 0.000650293 0.0196666 xyz
  end
  begin
    id 12
    name LeftShoulder1
    direction 0.99951 1.64443e-005 0.0312999
    length 4.05031
    axis -0.00349562 0.000650293 0.0196666 xyz
    dof rx ry rz
  end
  begin
    id 13
    name LeftArm
    direction 0.984791 0.0515299 0.165927
    length 12.9126
    axis -64.823 -10.7743 5.20463 xyz
    dof rx ry rz
  end
  begin
    id 14
    name LeftForeArm
    direction 0.984968 0.0534808 0.16425
    length 10.8596
    axis -30.0462 -7.70601 1.87451 xyz
    dof rx ry rz
  end
  begin
    id 15
    name LeftHand
    direction 0.975871 0.0289682 0.216418
    length 6.62295
    axis -20.1348 -6.98077 1.86072 xyz
    dof rx ry rz
  end
  begin
    id 16
    name RightShoulderDummy
    direction -0.998877 -0.0405946 -0.0244307
    length 3.5433
    axis -0.00349562 0.000650293 0.0196666 xyz
  end
  begin
    id 17
    name RightShoulder
    direction -0.998933 -0.0249743 -0.0388558
    length 4.05031
    axis -0.0205316 -4.02113 1.41395 xyz
    dof rx ry rz
  end
  begin
    id 18
    name RightArm
    direction -0.997559 0.068664 0.0127103
    length 12.9638
    axis -67.3882 1.84188 -6.15987 xyz
    dof rx ry rz
  end
  begin
    id 19
    name RightForeArm
    direction -0.991508 0.0912848 0.0926241
    length 10.8312
    axis -22.1975 3.41087 -4.28711 xyz
    dof rx ry rz
  end
  begin
    id 20
    name RightHand
    direction -0.989262 0.0600788 0.133232
    length 6.57864
    axis -12.2911 2.17515 -4.39675 xyz
    dof rx ry rz
  end
  begin
    id 21
    name LeftUpLegDummy
    direction 0.718183 -0.695806 0.00816078
    length 4.904
    axis 0 0 0 xyz
  end
  begin
    id 22
    name LeftUpLeg
    direction 0.0831398 -0.99469 0.0606531
    length 17.4976
    axis -1.71016 2.29552 4.63832 xyz
    dof rx ry rz
  end
  begin
    id 23
    name LeftLeg
    direction 0.0498442 -0.991778 -0.117862
    length 16.5821
    axis 5.13757 15.5727 5.13348 xyz
    dof rx ry rz
  end
  begin
    id 24
    name LeftFoot
    direction 0.269026 -0.433896 0.85986
    length 3.77069
    axis -0.576502 15.6961 4.10267 xyz
    dof rx ry rz
  end
  begin
    id 25
    name LeftToes
    direction 0.277311 0.0251143 0.960452
    length 3.85048
    axis -0.576502 15.6961 4.10267 xyz
    dof rx ry rz
  end
:hierarchy
  begin
    root RightUpLegDummy SpineDummy LeftUpLegDummy
    RightUpLegDummy RightUpLeg
    RightUpLeg RightLeg
    RightLeg RightFoot
    RightFoot RightToes
    SpineDummy Spine
    Spine Spine1
    Spine1 HEadDummy LeftShoulder1Dummy RightShoulderDummy
    HEadDummy HEad
    LeftShoulder1Dummy LeftShoulder1
    LeftShoulder1 LeftArm
    LeftArm LeftForeArm
    LeftForeArm LeftHand
    RightShoulderDummy RightShoulder
    RightShoulder RightArm
    RightArm RightForeArm
    RightForeArm RightHand
    LeftUpLegDummy LeftUpLeg
    LeftUpLeg LeftLeg
    LeftLeg LeftFoot
    LeftFoot LeftToes
  end

:SAMPLES-PER-SECOND 30
:FULLY-SPECIFIED
:DEGREES
16
root  6.30459 40.0425 -85.3952 -1.54295 -8.57477 0.763419
RightUpLeg  -0.43033 -0.440937 1.91211
RightLeg  2.83888 -4.76933 0.475078
RightFoot  -1.86304 0.211428 -2.17656
RightToes  5.82077e-011 -3.18055e-015 -2.98177e-016
Spine  -4.05044 1.1822 0.00325541
Spine1  13.1281 0.786492 2.14285
HEad  -14.2053 3.82063 -1.09869
LeftShoulder1  -3.88251e-019 9.70628e-020 -3.87848e-018
LeftArm  -24.3808 51.7472 -73.5959
LeftForeArm  4.25426 -11.5029 -4.75156
LeftHand  -0.53329 -0.11553 12.2158
RightShoulder  8.20612 10.9149 38.028
RightArm  10.6346 -39.2963 19.4261
RightForeArm  13.5262 15.5512 -4.30681
RightHand  -0.846693 0.957718 -15.1805
LeftUpLeg  -0.6503 -3.53999 -4.08213
LeftLeg  3.46693 15.3288 3.30017
LeftFoot  -1.17961 -0.00307719 -0.046781
LeftToes  1.39127e-010 -3.60802e-011 -7.31315e-011
17
root  6.30231 40.0442 -85.3965 -1.56853 -8.56501 0.75921
RightUpLeg  -0.374425 -0.422489 1.92808
RightLeg  2.78022 -4.79578 0.479011
RightFoot  -1.83477 0.211479 -2.17708
RightToes  5.82077e-011 -3.18055e-015 -2.98177e-016
Spine  -3.96062 1.21397 0.0124072
Spine1  13.0292 0.828009 2.12036
HEad  -14.1081 3.77231 -1.05072
LeftShoulder1  -3.88251e-019 9.70628e-020 -3.87848e-018
LeftArm  -24.3698 51.6996 -73.6459
LeftForeArm  4.35344 -11.2027 -4.81064
LeftHand  -0.587602 -0.301859 12.9879
RightShoulder  8.18051 10.907 37.9214
RightArm  10.593 -39.3902 19.6072
RightForeArm  13.7991 15.5321 -4.29519
RightHand  -0.828771 0.732141 -15.3897
LeftUpLeg  -0.606041 -3.52909 -4.07233
LeftLeg  3.43037 15.3125 3.27887
LeftFoot  -1.16197 -0.00326145 -0.044845
LeftToes  1.39127e-010 -3.60802e-011 -7.31315e-011
18
root  6.30423 40.0431 -85.4057 -1.52888 -8.57038 0.758402
RightUpLeg  -0.44988 -0.417157 1.92919
RightLeg  2.811 -4.79816 0.475382
RightFoot  -1.83591 0.213702 -2.1999
RightToes  5.82077e-011 -3.18055e-015 -2.98177e-016
Spine  -3.88266 1.22831 0.121186
Spine1  12.8938 0.887155 1.94374
HEad  -14.0169 3.7566 -0.988185
LeftShoulder1  -3.88251e-019 9.70628e-020 -3.87848e-018
LeftArm  -24.403 51.6635 -73.6542
LeftForeArm  4.40755 -10.9604 -4.8112
LeftHand  -0.634437 -0.344811 13.9058
RightShoulder  8.16137 10.904 37.8351
RightArm  10.3431 -39.4643 19.8642
RightForeArm  14.0553 15.4424 -4.25558
RightHand  -0.815352 0.516521 -15.6753
LeftUpLeg  -0.669204 -3.52378 -4.06736
LeftLeg  3.44187 15.3125 3.27889
LeftFoot  -1.16178 -0.00222262 -0.0557601
LeftToes  1.39127e-010 -3.60802e-011 -7.31315e-011
19
root  6.30789 40.041 -85.42 -1.47697 -8.58345 0.750645
RightUpLeg  -0.57574 -0.413433 1.93246
RightLeg  2.90261 -4.79463 0.458856
RightFoot  -1.85925 0.214475 -2.20785
RightToes  5.82077e-011 -3.18055e-015 -2.98177e-016
Spine  -3.78496 1.24411 0.251106
Spine1  12.7588 0.950187 1.74869
HEad  -14.0238 3.78028 -0.966914
LeftShoulder1  -3.88251e-019 9.70628e-020 -3.87848e-018
LeftArm  -24.374 51.6646 -73.6121
LeftForeArm  4.45297 -10.9836 -4.76118
LeftHand  -0.656829 -0.346976 14.3829
RightShoulder  8.14318 10.9006 37.7542
RightArm  10.0629 -39.5167 20.1409
RightForeArm  14.0746 15.3508 -4.20456
RightHand  -0.812728 0.376715 -15.9895
LeftUpLeg  -0.778127 -3.51582 -4.05571
LeftLeg  3.50483 15.3088 3.30441
LeftFoot  -1.17364 -0.00105319 -0.0680477
LeftToes  1.39127e-010 -3.60802e-011 -7.31315e-011
20
root  6.31079 40.039 -85.4355 -1.48765 -8.6027 0.733262
RightUpLeg  -0.63977 -0.397381 1.95084
RightLeg  3.00336 -4.79353 0.424553
RightFoot  -1.88423 0.210749 -2.16958
RightToes  5.82077e-011 -3.18055e-015 -2.98177e-016
Spine  -3.59051 1.27718 0.347287
Spine1  12.6003 1.01421 1.6209
HEad  -14.0918 3.77971 -0.956226
LeftShoulder1  -3.88251e-019 9.70628e-020 -3.87848e-018
LeftArm  -24.1927 51.6597 -73.5191
LeftForeArm  4.49517 -11.1727 -4.75199
LeftHand  -0.675257 -0.577923 14.1853
RightShoulder  8.11765 10.8922 37.6487
RightArm  9.94929 -39.5839 20.3568
RightForeArm  14.0372 15.3348 -4.19598
RightHand  -0.82332 0.423287 -16.0724
LeftUpLeg  -0.827495 -3.48305 -4.02754
LeftLeg  3.58892 15.2847 3.32962
LeftFoot  -1.19447 -0.000160791 -0.0774243
LeftToes  1.39127e-010 -3.60802e-011 -7.31315e-011
21
root  6.31478 40.0376 -85.4499 -1.55145 -8.6058 0.725659
RightUpLeg  -0.624909 -0.394886 1.95426
RightLeg  3.06343 -4.78739 0.401494
RightFoot  -1.8921 0.206519 -2.12614
RightToes  5.82077e-011 -3.18055e-015 -2.98177e-016
Spine  -3.34572 1.30819 0.429444
Spine1  12.4343 1.07478 1.50599
HEad  -14.1029 3.7304 -0.895567
LeftShoulder1  -3.88251e-019 9.70628e-020 -3.87848e-018
LeftArm  -23.9315 51.5684 -73.3961
LeftForeArm  4.55618 -11.2489 -4.8202
LeftHand  -0.695343 -0.952098 13.7014
RightShoulder  8.09407 10.8856 37.5487
RightArm  10.0195 -39.6446 20.4886
RightForeArm  14.1963 15.3821 -4.22424
RightHand  -0.83563 0.599967 -15.8462
LeftUpLeg  -0.797129 -3.44204 -4.00773
LeftLeg  3.62796 15.2466 3.32021
LeftFoot  -1.2082 0.00014923 -0.0806817
LeftToes  1.39127e-010 -3.60802e-011 -7.31315e-011
22
root  6.32195 40.038 -85.462 -1.60111 -8.58692 0.739635
RightUpLeg  -0.586089 -0.425606 1.92076
RightLeg  3.05218 -4.76932 0.41935
RightFoot  -1.86976 0.207892 -2.14024
RightToes  5.82077e-011 -3.18055e-015 -2.98177e-016
Spine  -3.16748 1.32292 0.518904
Spine1  12.3082 1.1276 1.3636
HEad  -14.0331 3.69055 -0.822014
LeftShoulder1  -3.88251e-019 9.70628e-020 -3.87848e-018
LeftArm  -23.7593 51.4035 -73.2931
LeftForeArm  4.71097 -11.143 -4.8805
LeftHand  -0.705441 -1.15159 13.4573
RightShoulder  8.08601 10.8862 37.5062
RightArm  10.1659 -39.6494 20.5515
RightForeArm  14.4427 15.4353 -4.24346
RightHand  -0.83604 0.714685 -15.5658
LeftUpLeg  -0.740262 -3.4284 -4.02019
LeftLeg  3.57525 15.2249 3.26864
LeftFoot  -1.19029 -0.00100497 -0.0685543
LeftToes  1.39127e-010 -3.60802e-011 -7.31315e-011
23
root  6.32996 40.0412 -85.4714 -1.61165 -8.57906 0.758963
RightUpLeg  -0.55676 -0.459412 1.88039
RightLeg  2.98296 -4.74178 0.461183
RightFoot  -1.81647 0.213398 -2.19678
RightToes  5.82077e-011 -3.18055e-015 -2.98177e-016
Spine  -3.05763 1.33951 0.589669
Spine1  12.1957 1.17468 1.25741
HEad  -13.9575 3.7116 -0.824937
LeftShoulder1  -3.88251e-019 9.70628e-020 -3.87848e-018
LeftArm  -23.7469 51.2717 -73.2404
LeftForeArm  4.92488 -11.0208 -4.84907
LeftHand  -0.700322 -1.06447 13.55
RightShoulder  8.09006 10.8855 37.5121
RightArm  10.3284 -39.6171 20.5468
RightForeArm  14.5139 15.4839 -4.24954
RightHand  -0.829669 0.721155 -15.4328
LeftUpLeg  -0.691677 -3.44039 -4.04666
LeftLeg  3.45979 15.2382 3.19916
LeftFoot  -1.14074 -0.00393691 -0.0377477
LeftToes  1.39127e-010 -3.60802e-011 -7.31315e-011
24
root  6.33541 40.0454 -85.4794 -1.6103 -8.60331 0.76696
RightUpLeg  -0.540753 -0.46236 1.86732
RightLeg  2.91433 -4.71174 0.484212
RightFoot  -1.75609 0.215647 -2.21988
RightToes  5.82077e-011 -3.18055e-015 -2.98177e-016
Spine  -2.92925 1.37137 0.607421
Spine1  12.0331 1.21343 1.24853
HEad  -13.9178 3.7625 -0.905775
LeftShoulder1  -3.88251e-019 9.70628e-020 -3.87848e-018
LeftArm  -23.8161 51.2174 -73.2203
LeftForeArm  5.00524 -10.9709 -4.76599
LeftHand  -0.677587 -0.806647 13.6831
RightShoulder  8.09017 10.8858 37.5079
RightArm  10.4682 -39.5977 20.5009
RightForeArm  14.4364 15.5261 -4.25375
RightHand  -0.829676 0.742584 -15.381
LeftUpLeg  -0.655387 -3.45078 -4.05907
LeftLeg  3.36001 15.2731 3.14506
LeftFoot  -1.09138 -0.00686793 -0.00695064
LeftToes  1.39127e-010 -3.60802e-011 -7.31315e-011
25
root  6.33858 40.0474 -85.4884 -1.61305 -8.6379 0.766469
RightUpLeg  -0.546812 -0.441667 1.87575
RightLeg  2.89107 -4.69269 0.475273
RightFoot  -1.72054 0.212328 -2.18579
RightToes  5.82077e-011 -3.18055e-015 -2.98177e-016
Spine  -2.77195 1.40163 0.57761
Spine1  11.8446 1.23242 1.30645
HEad  -13.8994 3.77444 -0.991881
LeftShoulder1  -3.88251e-019 9.70628e-020 -3.87848e-018
LeftArm  -23.8505 51.1757 -73.2077
LeftForeArm  4.89997 -10.9309 -4.73118
LeftHand  -0.638328 -0.514457 13.5653
RightShoulder  8.0792 10.8881 37.465
RightArm  10.4897 -39.5734 20.4896
RightForeArm  14.4177 15.5158 -4.22395
RightHand  -0.835419 0.789748 -15.3723
LeftUpLeg  -0.644661 -3.45063 -4.05845
LeftLeg  3.32585 15.3052 3.12573
LeftFoot  -1.07021 -0.007071 -0.00481702
LeftToes  1.39127e-010 -3.60802e-011 -7.31315e-011
26
root  6.3419 40.0481 -85.499 -1.61083 -8.66373 0.762231
RightUpLeg  -0.576322 -0.418937 1.8882
RightLeg  2.89857 -4.69363 0.457758
RightFoot  -1.71387 0.208841 -2.14999
RightToes  5.82077e-011 -3.18055e-015 -2.98177e-016
Spine  -2.64192 1.41377 0.540532
Spine1  11.7025 1.23059 1.36099
HEad  -13.9012 3.73916 -1.04323
LeftShoulder1  -3.88251e-019 9.70628e-020 -3.87848e-018
LeftArm  -23.7907 51.1019 -73.1958
LeftForeArm  4.82548 -10.8862 -4.7758
LeftHand  -0.600093 -0.328437 13.1988
RightShoulder  8.0688 10.8909 37.4182
RightArm  10.3951 -39.4979 20.5321
RightForeArm  14.4431 15.4475 -4.14741
RightHand  -0.8385 0.739659 -15.5508
LeftUpLeg  -0.668534 -3.44384 -4.05428
LeftLeg  3.34406 15.3265 3.13379
LeftFoot  -1.07342 -0.00427637 -0.0341809
LeftToes  1.39127e-010 -3.60802e-011 -7.31315e-011
